<svg width="54" height="47" viewBox="0 0 54 47" fill="none" xmlns="http://www.w3.org/2000/svg">
<g clip-path="url(#clip0_3_904)">
<path d="M44.7187 27.4024L31.7644 28.5985C29.1925 27.9658 26.2828 27.6087 23.2031 27.6087C20.1235 27.6087 17.2137 27.9658 14.6419 28.5985L1.6875 27.4024L4.64116 34.9944C4.4165 35.5554 4.29747 36.1344 4.29747 36.7265C4.29747 41.7541 12.7785 45.8444 23.2031 45.8444C33.6279 45.8444 42.109 41.7541 42.109 36.7265C42.109 36.1344 41.9899 35.5554 41.7653 34.9944L44.7187 27.4024ZM26.9702 42.1695C25.4779 42.1695 24.1335 41.873 23.2018 41.3803C22.2701 41.8734 20.927 42.1736 19.4364 42.1736C16.6299 42.1736 14.3467 41.049 14.3467 39.6843H17.1762C17.1762 40.3212 18.1901 40.809 19.4364 40.809C20.6826 40.809 21.6965 40.3455 21.6965 39.7445L21.6763 38.7716C20.0148 38.4722 18.8285 37.6829 18.8285 36.7731H21.658C21.658 37.228 22.3511 37.5182 23.2029 37.5182C24.0548 37.5182 24.7481 37.228 24.7481 36.7731H27.5776C27.5776 37.6829 26.3914 38.472 24.7299 38.7715L24.7098 39.7405C24.7098 40.3346 25.7237 40.8031 26.9698 40.8031C28.2159 40.8031 29.2299 40.3212 29.2299 39.6843H32.0594C32.0598 41.049 29.7767 42.1695 26.9702 42.1695Z" fill="black"/>
</g>
<path d="M45.0634 23.9065C50.4112 23.9065 53.9998 20.3522 53.9998 17.0331C53.9998 14.625 51.5645 14.2987 49.1829 14.2987C48.5028 14.2987 47.7689 14.3267 46.9929 14.3561C46.3663 14.3771 45.7168 14.3958 45.0616 14.4051L45.0693 14.2987H0.296913C0.296913 19.4411 5.02949 23.9135 12.002 26.2081C4.86103 26.4946 0 27.0584 0 27.705C0 28.6465 10.1551 29.4044 22.6821 29.4044C35.2091 29.4044 45.3623 28.6465 45.3623 27.705C45.3623 27.0548 40.4783 26.4922 33.3104 26.2068C35.3951 25.5215 37.2842 24.6502 38.9053 23.6163C40.7964 23.9065 43.0364 23.9065 45.0634 23.9065ZM44.981 15.3548C45.7033 15.3442 46.4105 15.3255 47.0867 15.2986C47.8378 15.2741 48.5504 15.2483 49.1847 15.2483C51.4417 15.2483 52.4515 15.5068 52.4515 17.033C52.4515 19.8364 49.4184 22.9602 45.0651 22.9602C43.1529 22.9602 41.4763 22.9357 40.1065 22.7976C42.862 20.7324 44.6227 18.1629 44.981 15.3548ZM19.4116 11.6357C19.3023 11.5702 16.7809 9.96912 19.4421 8.00537C22.6937 5.61128 19.4441 3.5763 19.4116 3.55643L18.7065 3.98676C18.8158 4.05104 21.3372 5.65449 18.674 7.61705C15.4224 10.0146 18.672 12.0508 18.7065 12.0695L19.4116 11.6357ZM23.2857 11.6357C23.1765 11.5702 20.6551 9.96912 23.3183 8.00537C26.5659 5.61128 23.3183 3.5763 23.2857 3.55643L22.5788 3.98676C22.688 4.05104 25.2094 5.65449 22.5482 7.61705C19.3006 10.0158 22.5462 12.0508 22.5807 12.0707L23.2857 11.6357ZM27.5049 11.6357C27.3957 11.5702 24.8742 9.96912 27.5355 8.00537C30.7851 5.61128 27.5355 3.5763 27.5049 3.55643L26.7959 3.98676C26.9032 4.05104 29.4286 5.65449 26.7634 7.61705C23.5158 10.0158 26.7634 12.0508 26.7979 12.0707L27.5049 11.6357Z" fill="#010002"/>
<defs>
<clipPath id="clip0_3_904">
<rect width="43.0312" height="20.7532" fill="white" transform="translate(1.6875 26.2467)"/>
</clipPath>
</defs>
</svg>
